<svg xmlns="http://www.w3.org/2000/svg" viewBox="0 0 960 640" role="img" aria-labelledby="title desc">
  <title id="title">Tropical beach at sunset</title>
  <desc id="desc">A stylized travel illustration with a sunset, ocean, palm trees, and sand.</desc>
  <defs>
    <linearGradient id="sky" x1="0" y1="0" x2="0" y2="1">
      <stop offset="0%" stop-color="#ffd7a8" />
      <stop offset="52%" stop-color="#ff9f7a" />
      <stop offset="100%" stop-color="#f6f0ff" />
    </linearGradient>
    <linearGradient id="water" x1="0" y1="0" x2="0" y2="1">
      <stop offset="0%" stop-color="#45c6d9" />
      <stop offset="100%" stop-color="#1d7ea8" />
    </linearGradient>
  </defs>
  <rect width="960" height="640" fill="url(#sky)" />
  <circle cx="730" cy="170" r="86" fill="#ffe38f" opacity="0.95" />
  <path d="M0 360C150 320 240 320 360 350s220 60 360 20 180-40 240-20v280H0Z" fill="url(#water)" />
  <path d="M0 420C150 390 250 400 360 430s220 50 360 10 170-35 240-10v210H0Z" fill="#166b8c" opacity="0.75" />
  <path d="M0 510C120 490 220 500 320 540s250 50 380 10 160-30 260 0v90H0Z" fill="#e9c88b" />
  <path d="M222 430c25-60 55-98 84-118 16-11 39-8 51 8 14 18 13 44-1 60-34 37-70 53-134 50Z" fill="#8a5d3b" />
  <path d="M320 310c-28 12-47 27-61 46-9 13-9 30 1 42 10 12 28 16 42 9 28-13 52-34 62-67 7-22-15-39-44-30Z" fill="#3d7f49" />
  <path d="M350 300c24 3 42 18 58 36 10 12 11 29 2 42-9 13-27 18-42 12-31-11-55-31-69-61-10-23 15-32 51-29Z" fill="#2f6e3e" />
  <path d="M382 320c26 6 51 24 67 50 7 11 4 27-7 35-12 9-28 9-39 1-28-21-48-43-56-70-4-15 8-20 35-16Z" fill="#4ea45b" />
  <path d="M700 420c20-48 39-78 60-96 15-13 38-11 51 4 13 16 15 39 5 55-20 31-51 45-116 37Z" fill="#8a5d3b" />
  <path d="M792 309c-30 10-50 25-64 43-10 13-11 31-2 44 9 13 27 18 42 11 30-12 54-31 67-62 8-21-13-40-43-36Z" fill="#357845" />
  <path d="M812 297c24 4 44 19 60 37 10 11 12 28 3 41-9 13-27 18-42 12-30-12-55-32-69-62-9-21 12-30 48-28Z" fill="#4aa85a" />
  <path d="M778 322c-29 7-52 24-68 49-8 12-6 28 5 37 11 9 27 10 39 2 30-19 51-41 60-70 5-16-7-21-36-18Z" fill="#2d6d3f" />
  <path d="M0 330c110 10 220-14 332-72 67-34 128-48 194-42 90 8 150 44 220 104 75 63 146 82 214 58v-52C900 338 818 330 734 262c-80-64-173-97-278-97-81 0-151 22-219 59C159 281 87 310 0 309Z" fill="#fff" opacity="0.18" />
</svg>
